<svg width="82" height="80" viewBox="0 0 82 80" fill="none" xmlns="http://www.w3.org/2000/svg">
<path d="M40 77.5758C40 78.9146 38.9133 80.0077 37.5769 79.9266C27.8522 79.3368 18.644 75.2126 11.7157 68.2843C4.21428 60.7828 2.23419e-06 50.6087 0 40C-2.23419e-06 29.3913 4.21427 19.2172 11.7157 11.7157C18.644 4.78744 27.8522 0.663184 37.5769 0.0733941C38.9133 -0.00765768 40 1.08537 40 2.42424L40 40V77.5758Z" fill="black"/>
<path d="M43.6364 2.42425C43.6364 1.08538 44.7228 -0.00800943 46.059 0.0769413C50.2444 0.343039 54.3631 1.29729 58.2479 2.90643C62.8803 4.82524 67.0895 7.63769 70.635 11.1832C74.1805 14.7287 76.9929 18.9378 78.9118 23.5703C80.5209 27.4551 81.4751 31.5738 81.7412 35.7592C81.8262 37.0954 80.7328 38.1818 79.3939 38.1818L61.8182 38.1818C51.7766 38.1818 43.6364 30.0415 43.6364 20V2.42425Z" fill="black"/>
<path d="M79.3939 41.8182C80.7328 41.8182 81.8262 42.9047 81.7412 44.2408C81.4751 48.4262 80.5209 52.5449 78.9118 56.4297C76.9929 61.0622 74.1805 65.2713 70.635 68.8168C67.0895 72.3623 62.8803 75.1748 58.2479 77.0936C54.3631 78.7027 50.2444 79.657 46.059 79.9231C44.7228 80.008 43.6364 78.9146 43.6364 77.5758L43.6364 62.4242C43.6364 51.0438 52.862 41.8182 64.2424 41.8182H79.3939Z" fill="black"/>
</svg>
